<mxfile host="app.diagrams.net" modified="2023-03-29T09:53:43.028Z" agent="Mozilla/5.0 (Macintosh; Intel Mac OS X 10_15_7) AppleWebKit/537.36 (KHTML, like Gecko) Chrome/111.0.0.0 Safari/537.36" etag="64N9PzLmQ1PKEYNTsNfE" version="21.1.1" type="device">
  <diagram id="07fea595-8f29-1299-0266-81d95cde20df" name="Page-1">
    <mxGraphModel dx="1306" dy="1562" grid="1" gridSize="10" guides="1" tooltips="1" connect="1" arrows="1" fold="1" page="1" pageScale="1" pageWidth="1169" pageHeight="827" background="#ffffff" math="0" shadow="0">
      <root>
        <mxCell id="0" />
        <mxCell id="1" parent="0" />
        <mxCell id="dncCQyLHs5qFYrOBb01V-4" value="" style="rounded=0;whiteSpace=wrap;html=1;fillColor=#f8cecc;strokeColor=#b85450;" parent="1" vertex="1">
          <mxGeometry x="4440" y="40" width="1120" height="720" as="geometry" />
        </mxCell>
        <mxCell id="x8r7VW5Qdn-yWQiRTI5Q-277" value="" style="rounded=0;whiteSpace=wrap;html=1;fillColor=#dae8fc;strokeColor=#6c8ebf;align=center;" parent="1" vertex="1">
          <mxGeometry x="20" y="-450" width="5540" height="490" as="geometry" />
        </mxCell>
        <mxCell id="x8r7VW5Qdn-yWQiRTI5Q-253" value="" style="rounded=0;whiteSpace=wrap;html=1;fillColor=#fff2cc;strokeColor=#d6b656;align=center;" parent="1" vertex="1">
          <mxGeometry x="1800" y="40" width="2640" height="720" as="geometry" />
        </mxCell>
        <mxCell id="x8r7VW5Qdn-yWQiRTI5Q-228" value="" style="rounded=0;whiteSpace=wrap;html=1;fillColor=#ffe6cc;strokeColor=#d79b00;align=center;" parent="1" vertex="1">
          <mxGeometry x="310" y="40" width="1490" height="720" as="geometry" />
        </mxCell>
        <mxCell id="x8r7VW5Qdn-yWQiRTI5Q-226" value="" style="rounded=0;whiteSpace=wrap;html=1;fillColor=#d5e8d4;strokeColor=#82b366;align=center;" parent="1" vertex="1">
          <mxGeometry x="230" y="40" width="250" height="720" as="geometry" />
        </mxCell>
        <mxCell id="x8r7VW5Qdn-yWQiRTI5Q-224" value="" style="rounded=0;whiteSpace=wrap;html=1;fillColor=#dae8fc;strokeColor=#6c8ebf;align=center;" parent="1" vertex="1">
          <mxGeometry x="20" y="40" width="210" height="720" as="geometry" />
        </mxCell>
        <mxCell id="x8r7VW5Qdn-yWQiRTI5Q-219" style="edgeStyle=orthogonalEdgeStyle;rounded=0;orthogonalLoop=1;jettySize=auto;html=1;" parent="1" source="x8r7VW5Qdn-yWQiRTI5Q-217" target="x8r7VW5Qdn-yWQiRTI5Q-218" edge="1">
          <mxGeometry relative="1" as="geometry" />
        </mxCell>
        <mxCell id="x8r7VW5Qdn-yWQiRTI5Q-217" value="Recruiter accesses ASC Recruiter Portal (HOF) via a public URL" style="rounded=1;whiteSpace=wrap;html=1;perimeterSpacing=0;spacingLeft=5;spacingBottom=5;spacingRight=-1;spacingTop=5;" parent="1" vertex="1">
          <mxGeometry x="40" y="130" width="170" height="100" as="geometry" />
        </mxCell>
        <mxCell id="x8r7VW5Qdn-yWQiRTI5Q-221" style="edgeStyle=orthogonalEdgeStyle;rounded=0;orthogonalLoop=1;jettySize=auto;html=1;" parent="1" source="x8r7VW5Qdn-yWQiRTI5Q-218" target="x8r7VW5Qdn-yWQiRTI5Q-220" edge="1">
          <mxGeometry relative="1" as="geometry" />
        </mxCell>
        <mxCell id="x8r7VW5Qdn-yWQiRTI5Q-218" value="Recruiter logs in using their credentials configured in Keycloak" style="rounded=1;whiteSpace=wrap;html=1;perimeterSpacing=0;spacingLeft=5;spacingBottom=5;spacingRight=-1;spacingTop=5;" parent="1" vertex="1">
          <mxGeometry x="260" y="130" width="190" height="100" as="geometry" />
        </mxCell>
        <mxCell id="QRgIElJd6RJdTndcSFIf-3" style="edgeStyle=orthogonalEdgeStyle;rounded=0;orthogonalLoop=1;jettySize=auto;html=1;entryX=0;entryY=0.5;entryDx=0;entryDy=0;" parent="1" source="x8r7VW5Qdn-yWQiRTI5Q-220" target="QRgIElJd6RJdTndcSFIf-2" edge="1">
          <mxGeometry relative="1" as="geometry" />
        </mxCell>
        <mxCell id="x8r7VW5Qdn-yWQiRTI5Q-220" value="Recruiter is presented with the &quot;recruiter&quot; HOF form" style="rounded=1;whiteSpace=wrap;html=1;perimeterSpacing=0;spacingLeft=5;spacingBottom=5;spacingRight=-1;spacingTop=5;" parent="1" vertex="1">
          <mxGeometry x="510" y="125" width="200" height="110" as="geometry" />
        </mxCell>
        <mxCell id="x8r7VW5Qdn-yWQiRTI5Q-232" value="" style="edgeStyle=orthogonalEdgeStyle;rounded=0;orthogonalLoop=1;jettySize=auto;html=1;" parent="1" source="x8r7VW5Qdn-yWQiRTI5Q-222" target="x8r7VW5Qdn-yWQiRTI5Q-231" edge="1">
          <mxGeometry relative="1" as="geometry" />
        </mxCell>
        <mxCell id="x8r7VW5Qdn-yWQiRTI5Q-222" value="Recruiter enters the candidate email address and clicks button to continue" style="rounded=1;whiteSpace=wrap;html=1;perimeterSpacing=0;spacingLeft=5;spacingBottom=5;spacingRight=-1;spacingTop=5;" parent="1" vertex="1">
          <mxGeometry x="750" y="300" width="190" height="120" as="geometry" />
        </mxCell>
        <mxCell id="x8r7VW5Qdn-yWQiRTI5Q-225" value="RECRUITER" style="text;html=1;align=center;verticalAlign=middle;resizable=0;points=[];autosize=1;strokeColor=none;fillColor=none;" parent="1" vertex="1">
          <mxGeometry x="50" y="50" width="90" height="30" as="geometry" />
        </mxCell>
        <mxCell id="x8r7VW5Qdn-yWQiRTI5Q-227" value="KEYCLOAK" style="text;html=1;align=center;verticalAlign=middle;resizable=0;points=[];autosize=1;strokeColor=none;fillColor=none;" parent="1" vertex="1">
          <mxGeometry x="310" y="50" width="90" height="30" as="geometry" />
        </mxCell>
        <mxCell id="x8r7VW5Qdn-yWQiRTI5Q-229" value="HOF RECRUITER FORM" style="text;html=1;align=center;verticalAlign=middle;resizable=0;points=[];autosize=1;strokeColor=none;fillColor=none;" parent="1" vertex="1">
          <mxGeometry x="505" y="50" width="160" height="30" as="geometry" />
        </mxCell>
        <mxCell id="x8r7VW5Qdn-yWQiRTI5Q-235" value="" style="edgeStyle=orthogonalEdgeStyle;rounded=0;orthogonalLoop=1;jettySize=auto;html=1;" parent="1" source="x8r7VW5Qdn-yWQiRTI5Q-231" target="x8r7VW5Qdn-yWQiRTI5Q-234" edge="1">
          <mxGeometry relative="1" as="geometry" />
        </mxCell>
        <mxCell id="x8r7VW5Qdn-yWQiRTI5Q-231" value="Recruiter enters Candidate NI Number and clicks button to continue" style="whiteSpace=wrap;html=1;rounded=1;perimeterSpacing=0;spacingLeft=5;spacingBottom=5;spacingRight=-1;spacingTop=5;" parent="1" vertex="1">
          <mxGeometry x="980" y="300" width="160" height="120" as="geometry" />
        </mxCell>
        <mxCell id="x8r7VW5Qdn-yWQiRTI5Q-243" style="edgeStyle=orthogonalEdgeStyle;rounded=0;orthogonalLoop=1;jettySize=auto;html=1;entryX=0.5;entryY=0;entryDx=0;entryDy=0;" parent="1" source="x8r7VW5Qdn-yWQiRTI5Q-234" target="x8r7VW5Qdn-yWQiRTI5Q-236" edge="1">
          <mxGeometry relative="1" as="geometry" />
        </mxCell>
        <mxCell id="x8r7VW5Qdn-yWQiRTI5Q-234" value="Recruiter selects Candidate Recruitment Type and clicks button to continue" style="whiteSpace=wrap;html=1;rounded=1;spacingLeft=5;spacingBottom=5;spacingRight=-1;spacingTop=5;" parent="1" vertex="1">
          <mxGeometry x="1180" y="300" width="180" height="120" as="geometry" />
        </mxCell>
        <mxCell id="x8r7VW5Qdn-yWQiRTI5Q-238" value="" style="edgeStyle=orthogonalEdgeStyle;rounded=0;orthogonalLoop=1;jettySize=auto;html=1;" parent="1" source="x8r7VW5Qdn-yWQiRTI5Q-236" target="x8r7VW5Qdn-yWQiRTI5Q-237" edge="1">
          <mxGeometry relative="1" as="geometry" />
        </mxCell>
        <mxCell id="x8r7VW5Qdn-yWQiRTI5Q-236" value="Recruiter is presented with a summary of the candidate application they are about to create." style="whiteSpace=wrap;html=1;rounded=1;spacingLeft=5;spacingBottom=5;spacingRight=-1;spacingTop=5;" parent="1" vertex="1">
          <mxGeometry x="1180" y="450" width="180" height="110" as="geometry" />
        </mxCell>
        <mxCell id="x8r7VW5Qdn-yWQiRTI5Q-240" value="" style="edgeStyle=orthogonalEdgeStyle;rounded=0;orthogonalLoop=1;jettySize=auto;html=1;" parent="1" source="x8r7VW5Qdn-yWQiRTI5Q-237" target="x8r7VW5Qdn-yWQiRTI5Q-239" edge="1">
          <mxGeometry relative="1" as="geometry" />
        </mxCell>
        <mxCell id="x8r7VW5Qdn-yWQiRTI5Q-237" value="Recruiter chooses to change any of the information prior to submission using the &quot;Change&quot; option on the summary page" style="whiteSpace=wrap;html=1;rounded=1;spacingLeft=5;spacingBottom=5;spacingRight=-1;spacingTop=5;" parent="1" vertex="1">
          <mxGeometry x="970" y="450" width="180" height="110" as="geometry" />
        </mxCell>
        <mxCell id="0nyJZ_ot4OZluqlmO56n-7" style="edgeStyle=orthogonalEdgeStyle;rounded=0;orthogonalLoop=1;jettySize=auto;html=1;entryX=0.25;entryY=0;entryDx=0;entryDy=0;exitX=0.5;exitY=0;exitDx=0;exitDy=0;" edge="1" parent="1" source="x8r7VW5Qdn-yWQiRTI5Q-239" target="x8r7VW5Qdn-yWQiRTI5Q-236">
          <mxGeometry relative="1" as="geometry" />
        </mxCell>
        <mxCell id="x8r7VW5Qdn-yWQiRTI5Q-239" value="Recruiter is redirected back to appropriate question to make the change" style="whiteSpace=wrap;html=1;rounded=1;spacingLeft=5;spacingBottom=5;spacingRight=-1;spacingTop=5;" parent="1" vertex="1">
          <mxGeometry x="750" y="450" width="180" height="110" as="geometry" />
        </mxCell>
        <mxCell id="x8r7VW5Qdn-yWQiRTI5Q-298" style="edgeStyle=orthogonalEdgeStyle;rounded=0;orthogonalLoop=1;jettySize=auto;html=1;" parent="1" source="x8r7VW5Qdn-yWQiRTI5Q-245" target="x8r7VW5Qdn-yWQiRTI5Q-297" edge="1">
          <mxGeometry relative="1" as="geometry" />
        </mxCell>
        <mxCell id="x8r7VW5Qdn-yWQiRTI5Q-300" style="edgeStyle=orthogonalEdgeStyle;rounded=0;orthogonalLoop=1;jettySize=auto;html=1;entryX=0;entryY=0.5;entryDx=0;entryDy=0;" parent="1" source="x8r7VW5Qdn-yWQiRTI5Q-245" target="x8r7VW5Qdn-yWQiRTI5Q-299" edge="1">
          <mxGeometry relative="1" as="geometry" />
        </mxCell>
        <mxCell id="x8r7VW5Qdn-yWQiRTI5Q-245" value="Recruiter confirms they are happy with the candidate information they have entered." style="whiteSpace=wrap;html=1;rounded=1;spacingLeft=5;spacingBottom=5;spacingRight=-1;spacingTop=5;" parent="1" vertex="1">
          <mxGeometry x="1380" y="450" width="190" height="110" as="geometry" />
        </mxCell>
        <mxCell id="x8r7VW5Qdn-yWQiRTI5Q-247" value="Email confirmation is sent to Recruiter" style="ellipse;whiteSpace=wrap;html=1;rounded=1;spacingLeft=5;spacingBottom=5;spacingRight=-1;spacingTop=5;" parent="1" vertex="1">
          <mxGeometry x="1665" y="-320" width="160" height="80" as="geometry" />
        </mxCell>
        <mxCell id="x8r7VW5Qdn-yWQiRTI5Q-249" value="Email is sent to candidate with hyperlink to access HOF Candidate Application form" style="ellipse;whiteSpace=wrap;html=1;rounded=1;spacingLeft=5;spacingBottom=5;spacingRight=-1;spacingTop=5;" parent="1" vertex="1">
          <mxGeometry x="1650" y="-230" width="190" height="100" as="geometry" />
        </mxCell>
        <mxCell id="x8r7VW5Qdn-yWQiRTI5Q-250" value="Email confirmation is sent to the Caseworker inbox&lt;br&gt;&lt;br&gt;(is this required?)" style="ellipse;whiteSpace=wrap;html=1;rounded=1;spacingLeft=5;spacingBottom=5;spacingRight=-1;spacingTop=5;" parent="1" vertex="1">
          <mxGeometry x="1642.5" y="-115" width="205" height="120" as="geometry" />
        </mxCell>
        <mxCell id="x8r7VW5Qdn-yWQiRTI5Q-254" value="HOF CANDIDATE APPLICATION FORM" style="text;html=1;align=center;verticalAlign=middle;resizable=0;points=[];autosize=1;strokeColor=none;fillColor=none;" parent="1" vertex="1">
          <mxGeometry x="1830" y="50" width="240" height="30" as="geometry" />
        </mxCell>
        <mxCell id="x8r7VW5Qdn-yWQiRTI5Q-259" value="" style="edgeStyle=orthogonalEdgeStyle;rounded=0;orthogonalLoop=1;jettySize=auto;html=1;" parent="1" source="x8r7VW5Qdn-yWQiRTI5Q-255" target="x8r7VW5Qdn-yWQiRTI5Q-258" edge="1">
          <mxGeometry relative="1" as="geometry" />
        </mxCell>
        <mxCell id="x8r7VW5Qdn-yWQiRTI5Q-255" value="Candidate clicks hyperlink in their email. This hyperlink is a generic public hyperlink and does not expire." style="whiteSpace=wrap;html=1;rounded=1;spacingLeft=5;spacingBottom=5;spacingRight=-1;spacingTop=5;" parent="1" vertex="1">
          <mxGeometry x="1840" y="100" width="180" height="120" as="geometry" />
        </mxCell>
        <mxCell id="gFG6pAqyAOO8Su1XMJ1i-25" style="edgeStyle=orthogonalEdgeStyle;rounded=0;orthogonalLoop=1;jettySize=auto;html=1;entryX=0.5;entryY=0;entryDx=0;entryDy=0;" parent="1" source="x8r7VW5Qdn-yWQiRTI5Q-258" target="gFG6pAqyAOO8Su1XMJ1i-24" edge="1">
          <mxGeometry relative="1" as="geometry" />
        </mxCell>
        <mxCell id="x8r7VW5Qdn-yWQiRTI5Q-258" value="Candidate enters their own email address (as entered during the Recruiter journey) then clicks to continue" style="whiteSpace=wrap;html=1;rounded=1;spacingLeft=5;spacingBottom=5;spacingRight=-1;spacingTop=5;" parent="1" vertex="1">
          <mxGeometry x="2060" y="100" width="180" height="120" as="geometry" />
        </mxCell>
        <mxCell id="gFG6pAqyAOO8Su1XMJ1i-27" style="edgeStyle=orthogonalEdgeStyle;rounded=0;orthogonalLoop=1;jettySize=auto;html=1;entryX=0.5;entryY=0;entryDx=0;entryDy=0;" parent="1" source="x8r7VW5Qdn-yWQiRTI5Q-260" target="x8r7VW5Qdn-yWQiRTI5Q-262" edge="1">
          <mxGeometry relative="1" as="geometry" />
        </mxCell>
        <mxCell id="x8r7VW5Qdn-yWQiRTI5Q-260" value="The candidate is sent an email with a hyperlink to access the ASC dashboard. This hyperlink is unique and will expire after a certain period. This verification step ensures the candidate is who they say they are since only they can receive this verification email. Candidate clicks the link." style="whiteSpace=wrap;html=1;rounded=1;spacingLeft=5;spacingBottom=5;spacingRight=-1;spacingTop=5;" parent="1" vertex="1">
          <mxGeometry x="2450" y="100" width="220" height="120" as="geometry" />
        </mxCell>
        <mxCell id="x8r7VW5Qdn-yWQiRTI5Q-267" value="Yes" style="edgeStyle=orthogonalEdgeStyle;rounded=0;orthogonalLoop=1;jettySize=auto;html=1;entryX=0.5;entryY=0;entryDx=0;entryDy=0;" parent="1" source="x8r7VW5Qdn-yWQiRTI5Q-262" target="x8r7VW5Qdn-yWQiRTI5Q-265" edge="1">
          <mxGeometry relative="1" as="geometry" />
        </mxCell>
        <mxCell id="gFG6pAqyAOO8Su1XMJ1i-28" style="edgeStyle=orthogonalEdgeStyle;rounded=0;orthogonalLoop=1;jettySize=auto;html=1;entryX=0;entryY=0.5;entryDx=0;entryDy=0;" parent="1" source="x8r7VW5Qdn-yWQiRTI5Q-262" target="QRgIElJd6RJdTndcSFIf-54" edge="1">
          <mxGeometry relative="1" as="geometry" />
        </mxCell>
        <mxCell id="gFG6pAqyAOO8Su1XMJ1i-29" value="No" style="edgeLabel;html=1;align=center;verticalAlign=middle;resizable=0;points=[];" parent="gFG6pAqyAOO8Su1XMJ1i-28" vertex="1" connectable="0">
          <mxGeometry x="-0.2084" y="-3" relative="1" as="geometry">
            <mxPoint y="-1" as="offset" />
          </mxGeometry>
        </mxCell>
        <mxCell id="x8r7VW5Qdn-yWQiRTI5Q-262" value="Has link expired?" style="rhombus;whiteSpace=wrap;html=1;" parent="1" vertex="1">
          <mxGeometry x="2485" y="250" width="150" height="120" as="geometry" />
        </mxCell>
        <mxCell id="x8r7VW5Qdn-yWQiRTI5Q-266" style="edgeStyle=orthogonalEdgeStyle;rounded=0;orthogonalLoop=1;jettySize=auto;html=1;" parent="1" source="x8r7VW5Qdn-yWQiRTI5Q-265" target="x8r7VW5Qdn-yWQiRTI5Q-255" edge="1">
          <mxGeometry relative="1" as="geometry" />
        </mxCell>
        <mxCell id="x8r7VW5Qdn-yWQiRTI5Q-265" value="The hyperlink has expired. Candidate is not able to proceed further and would need to verify themselves again." style="whiteSpace=wrap;html=1;rounded=1;spacingLeft=5;spacingBottom=5;spacingRight=-1;spacingTop=5;" parent="1" vertex="1">
          <mxGeometry x="2450" y="414" width="220" height="120" as="geometry" />
        </mxCell>
        <mxCell id="QRgIElJd6RJdTndcSFIf-60" style="edgeStyle=orthogonalEdgeStyle;rounded=0;orthogonalLoop=1;jettySize=auto;html=1;" parent="1" source="x8r7VW5Qdn-yWQiRTI5Q-268" target="x8r7VW5Qdn-yWQiRTI5Q-270" edge="1">
          <mxGeometry relative="1" as="geometry" />
        </mxCell>
        <mxCell id="x8r7VW5Qdn-yWQiRTI5Q-268" value="Candidate is shown the dashboard which displays all Candidate Applications available to them as created by the Recruiter. These are associated with the email address the recruiter entered.&lt;br&gt;&lt;br&gt;Expired and Submitted applications can no longer be accessed." style="whiteSpace=wrap;html=1;rounded=1;spacingLeft=5;spacingBottom=5;spacingRight=-1;spacingTop=5;" parent="1" vertex="1">
          <mxGeometry x="2750" y="100" width="220" height="180" as="geometry" />
        </mxCell>
        <mxCell id="x8r7VW5Qdn-yWQiRTI5Q-274" style="edgeStyle=orthogonalEdgeStyle;rounded=0;orthogonalLoop=1;jettySize=auto;html=1;entryX=0;entryY=0.5;entryDx=0;entryDy=0;" parent="1" source="x8r7VW5Qdn-yWQiRTI5Q-270" target="x8r7VW5Qdn-yWQiRTI5Q-272" edge="1">
          <mxGeometry relative="1" as="geometry" />
        </mxCell>
        <mxCell id="x8r7VW5Qdn-yWQiRTI5Q-270" value="Candidate chooses an available application to Start/Resume" style="whiteSpace=wrap;html=1;rounded=1;spacingLeft=5;spacingBottom=5;spacingRight=-1;spacingTop=5;" parent="1" vertex="1">
          <mxGeometry x="3010" y="100" width="180" height="120" as="geometry" />
        </mxCell>
        <mxCell id="gFG6pAqyAOO8Su1XMJ1i-3" style="edgeStyle=orthogonalEdgeStyle;rounded=0;orthogonalLoop=1;jettySize=auto;html=1;" parent="1" source="x8r7VW5Qdn-yWQiRTI5Q-272" target="gFG6pAqyAOO8Su1XMJ1i-1" edge="1">
          <mxGeometry relative="1" as="geometry" />
        </mxCell>
        <mxCell id="x8r7VW5Qdn-yWQiRTI5Q-272" value="Candidate is presented with the HOF Candidate Application form and begins answering the questions" style="whiteSpace=wrap;html=1;rounded=1;spacingLeft=5;spacingBottom=5;spacingRight=-1;spacingTop=5;" parent="1" vertex="1">
          <mxGeometry x="3220" y="100" width="180" height="120" as="geometry" />
        </mxCell>
        <mxCell id="gFG6pAqyAOO8Su1XMJ1i-34" style="edgeStyle=orthogonalEdgeStyle;rounded=0;orthogonalLoop=1;jettySize=auto;html=1;entryX=0.5;entryY=1;entryDx=0;entryDy=0;" parent="1" source="x8r7VW5Qdn-yWQiRTI5Q-273" target="x8r7VW5Qdn-yWQiRTI5Q-276" edge="1">
          <mxGeometry relative="1" as="geometry" />
        </mxCell>
        <mxCell id="dncCQyLHs5qFYrOBb01V-3" style="edgeStyle=orthogonalEdgeStyle;rounded=0;orthogonalLoop=1;jettySize=auto;html=1;entryX=0;entryY=0.5;entryDx=0;entryDy=0;" parent="1" source="x8r7VW5Qdn-yWQiRTI5Q-276" edge="1">
          <mxGeometry relative="1" as="geometry">
            <mxPoint x="3870" y="160" as="targetPoint" />
          </mxGeometry>
        </mxCell>
        <mxCell id="x8r7VW5Qdn-yWQiRTI5Q-276" value="Candidate is shown a final summary of their answers" style="whiteSpace=wrap;html=1;rounded=1;spacingLeft=5;spacingBottom=5;spacingRight=-1;spacingTop=5;" parent="1" vertex="1">
          <mxGeometry x="3640" y="100" width="180" height="120" as="geometry" />
        </mxCell>
        <mxCell id="x8r7VW5Qdn-yWQiRTI5Q-278" value="HOF BACKEND" style="text;html=1;align=center;verticalAlign=middle;resizable=0;points=[];autosize=1;strokeColor=none;fillColor=none;" parent="1" vertex="1">
          <mxGeometry x="30" y="-428" width="110" height="30" as="geometry" />
        </mxCell>
        <mxCell id="x8r7VW5Qdn-yWQiRTI5Q-279" value="Email confirmation is sent to Recruiter" style="ellipse;whiteSpace=wrap;html=1;rounded=1;spacingLeft=5;spacingBottom=5;spacingRight=-1;spacingTop=5;" parent="1" vertex="1">
          <mxGeometry x="5303" y="-310" width="160" height="80" as="geometry" />
        </mxCell>
        <mxCell id="x8r7VW5Qdn-yWQiRTI5Q-280" value="Email confirmation is sent to the Candidate" style="ellipse;whiteSpace=wrap;html=1;rounded=1;spacingLeft=5;spacingBottom=5;spacingRight=-1;spacingTop=5;" parent="1" vertex="1">
          <mxGeometry x="5288" y="-190" width="190" height="100" as="geometry" />
        </mxCell>
        <mxCell id="x8r7VW5Qdn-yWQiRTI5Q-281" value="Email confirmation is sent to the Caseworker inbox" style="ellipse;whiteSpace=wrap;html=1;rounded=1;spacingLeft=5;spacingBottom=5;spacingRight=-1;spacingTop=5;" parent="1" vertex="1">
          <mxGeometry x="5303" y="-60" width="160" height="80" as="geometry" />
        </mxCell>
        <mxCell id="QRgIElJd6RJdTndcSFIf-32" style="edgeStyle=orthogonalEdgeStyle;rounded=0;orthogonalLoop=1;jettySize=auto;html=1;entryX=0;entryY=0.5;entryDx=0;entryDy=0;" parent="1" source="x8r7VW5Qdn-yWQiRTI5Q-288" target="QRgIElJd6RJdTndcSFIf-31" edge="1">
          <mxGeometry relative="1" as="geometry" />
        </mxCell>
        <mxCell id="x8r7VW5Qdn-yWQiRTI5Q-301" style="edgeStyle=orthogonalEdgeStyle;rounded=0;orthogonalLoop=1;jettySize=auto;html=1;entryX=0;entryY=0.5;entryDx=0;entryDy=0;" parent="1" source="x8r7VW5Qdn-yWQiRTI5Q-297" target="x8r7VW5Qdn-yWQiRTI5Q-250" edge="1">
          <mxGeometry relative="1" as="geometry" />
        </mxCell>
        <mxCell id="x8r7VW5Qdn-yWQiRTI5Q-302" style="edgeStyle=orthogonalEdgeStyle;rounded=0;orthogonalLoop=1;jettySize=auto;html=1;entryX=0;entryY=0.5;entryDx=0;entryDy=0;" parent="1" source="x8r7VW5Qdn-yWQiRTI5Q-297" target="x8r7VW5Qdn-yWQiRTI5Q-249" edge="1">
          <mxGeometry relative="1" as="geometry">
            <Array as="points">
              <mxPoint x="1620" y="-55" />
              <mxPoint x="1620" y="-180" />
            </Array>
          </mxGeometry>
        </mxCell>
        <mxCell id="x8r7VW5Qdn-yWQiRTI5Q-303" style="edgeStyle=orthogonalEdgeStyle;rounded=0;orthogonalLoop=1;jettySize=auto;html=1;entryX=0;entryY=0.5;entryDx=0;entryDy=0;" parent="1" source="x8r7VW5Qdn-yWQiRTI5Q-297" target="x8r7VW5Qdn-yWQiRTI5Q-247" edge="1">
          <mxGeometry relative="1" as="geometry">
            <Array as="points">
              <mxPoint x="1620" y="-55" />
              <mxPoint x="1620" y="-280" />
            </Array>
          </mxGeometry>
        </mxCell>
        <mxCell id="x8r7VW5Qdn-yWQiRTI5Q-297" value="Candidate Application is stored in the HOF backend systems, including the datetime this candidate application was created. This will be used to ensure the application is completed within the 7 day period." style="whiteSpace=wrap;html=1;rounded=1;spacingLeft=5;spacingBottom=5;spacingRight=-1;spacingTop=5;" parent="1" vertex="1">
          <mxGeometry x="1380" y="-110" width="190" height="110" as="geometry" />
        </mxCell>
        <mxCell id="x8r7VW5Qdn-yWQiRTI5Q-299" value="Recruiter is shown a confirmation page" style="whiteSpace=wrap;html=1;rounded=1;spacingLeft=5;spacingBottom=5;spacingRight=-1;spacingTop=5;" parent="1" vertex="1">
          <mxGeometry x="1600" y="450" width="190" height="110" as="geometry" />
        </mxCell>
        <mxCell id="dncCQyLHs5qFYrOBb01V-5" value="CLUE" style="text;html=1;align=center;verticalAlign=middle;resizable=0;points=[];autosize=1;strokeColor=none;fillColor=none;" parent="1" vertex="1">
          <mxGeometry x="4485" y="50" width="60" height="30" as="geometry" />
        </mxCell>
        <mxCell id="dncCQyLHs5qFYrOBb01V-6" value="Candidate Application is available in CLUE for Caseworkers to action" style="whiteSpace=wrap;html=1;rounded=1;spacingLeft=5;spacingBottom=5;spacingRight=-1;spacingTop=5;" parent="1" vertex="1">
          <mxGeometry x="4485" y="100" width="180" height="120" as="geometry" />
        </mxCell>
        <mxCell id="dncCQyLHs5qFYrOBb01V-14" value="&lt;font style=&quot;font-size: 23px;&quot;&gt;ASC Recruiter and Candidate Journey&lt;br&gt;v1.4&lt;br&gt;Produced by Martin Crawley (HOF)&lt;br&gt;&lt;/font&gt;" style="text;html=1;align=left;verticalAlign=middle;resizable=0;points=[];autosize=1;strokeColor=none;fillColor=none;" parent="1" vertex="1">
          <mxGeometry x="20" y="-585" width="410" height="100" as="geometry" />
        </mxCell>
        <mxCell id="gFG6pAqyAOO8Su1XMJ1i-4" style="edgeStyle=orthogonalEdgeStyle;rounded=0;orthogonalLoop=1;jettySize=auto;html=1;entryX=0;entryY=0.5;entryDx=0;entryDy=0;" parent="1" source="gFG6pAqyAOO8Su1XMJ1i-1" target="gFG6pAqyAOO8Su1XMJ1i-2" edge="1">
          <mxGeometry relative="1" as="geometry" />
        </mxCell>
        <mxCell id="gFG6pAqyAOO8Su1XMJ1i-7" value="Yes" style="edgeLabel;html=1;align=center;verticalAlign=middle;resizable=0;points=[];" parent="gFG6pAqyAOO8Su1XMJ1i-4" vertex="1" connectable="0">
          <mxGeometry x="-0.4808" y="-2" relative="1" as="geometry">
            <mxPoint x="2" y="18" as="offset" />
          </mxGeometry>
        </mxCell>
        <mxCell id="gFG6pAqyAOO8Su1XMJ1i-31" style="edgeStyle=orthogonalEdgeStyle;rounded=0;orthogonalLoop=1;jettySize=auto;html=1;entryX=0;entryY=0.5;entryDx=0;entryDy=0;" parent="1" source="gFG6pAqyAOO8Su1XMJ1i-1" target="gFG6pAqyAOO8Su1XMJ1i-10" edge="1">
          <mxGeometry relative="1" as="geometry" />
        </mxCell>
        <mxCell id="gFG6pAqyAOO8Su1XMJ1i-32" value="No" style="edgeLabel;html=1;align=center;verticalAlign=middle;resizable=0;points=[];" parent="gFG6pAqyAOO8Su1XMJ1i-31" vertex="1" connectable="0">
          <mxGeometry x="0.51" relative="1" as="geometry">
            <mxPoint y="42" as="offset" />
          </mxGeometry>
        </mxCell>
        <mxCell id="gFG6pAqyAOO8Su1XMJ1i-33" style="edgeStyle=orthogonalEdgeStyle;rounded=0;orthogonalLoop=1;jettySize=auto;html=1;entryX=0;entryY=0.5;entryDx=0;entryDy=0;" parent="1" source="gFG6pAqyAOO8Su1XMJ1i-2" target="x8r7VW5Qdn-yWQiRTI5Q-273" edge="1">
          <mxGeometry relative="1" as="geometry" />
        </mxCell>
        <mxCell id="QRgIElJd6RJdTndcSFIf-15" style="edgeStyle=orthogonalEdgeStyle;rounded=0;orthogonalLoop=1;jettySize=auto;html=1;entryX=0;entryY=0.5;entryDx=0;entryDy=0;" parent="1" source="gFG6pAqyAOO8Su1XMJ1i-10" target="x8r7VW5Qdn-yWQiRTI5Q-276" edge="1">
          <mxGeometry relative="1" as="geometry" />
        </mxCell>
        <mxCell id="gFG6pAqyAOO8Su1XMJ1i-10" value="Candidate completes the whole ASC form" style="whiteSpace=wrap;html=1;rounded=1;spacingLeft=5;spacingBottom=5;spacingRight=-1;spacingTop=5;" parent="1" vertex="1">
          <mxGeometry x="3440" y="100" width="170" height="120" as="geometry" />
        </mxCell>
        <mxCell id="gFG6pAqyAOO8Su1XMJ1i-26" style="edgeStyle=orthogonalEdgeStyle;rounded=0;orthogonalLoop=1;jettySize=auto;html=1;entryX=0;entryY=0.5;entryDx=0;entryDy=0;exitX=1;exitY=0.5;exitDx=0;exitDy=0;" parent="1" source="gFG6pAqyAOO8Su1XMJ1i-24" target="x8r7VW5Qdn-yWQiRTI5Q-260" edge="1">
          <mxGeometry relative="1" as="geometry" />
        </mxCell>
        <mxCell id="l9uxB1-hJ9jOmnt-ZTZ5-2" value="Yes" style="edgeLabel;html=1;align=center;verticalAlign=middle;resizable=0;points=[];" parent="gFG6pAqyAOO8Su1XMJ1i-26" vertex="1" connectable="0">
          <mxGeometry x="0.1905" y="1" relative="1" as="geometry">
            <mxPoint x="-70" y="124" as="offset" />
          </mxGeometry>
        </mxCell>
        <mxCell id="l9uxB1-hJ9jOmnt-ZTZ5-3" style="edgeStyle=orthogonalEdgeStyle;rounded=0;orthogonalLoop=1;jettySize=auto;html=1;entryX=0;entryY=0.5;entryDx=0;entryDy=0;" parent="1" source="gFG6pAqyAOO8Su1XMJ1i-24" target="QRgIElJd6RJdTndcSFIf-56" edge="1">
          <mxGeometry relative="1" as="geometry">
            <Array as="points">
              <mxPoint x="2150" y="650" />
            </Array>
          </mxGeometry>
        </mxCell>
        <mxCell id="l9uxB1-hJ9jOmnt-ZTZ5-4" value="No" style="edgeLabel;html=1;align=center;verticalAlign=middle;resizable=0;points=[];" parent="l9uxB1-hJ9jOmnt-ZTZ5-3" vertex="1" connectable="0">
          <mxGeometry x="-0.7937" y="3" relative="1" as="geometry">
            <mxPoint x="-3" y="-63" as="offset" />
          </mxGeometry>
        </mxCell>
        <mxCell id="gFG6pAqyAOO8Su1XMJ1i-24" value="Does the candidate have any valid applications outstanding in the database?" style="rhombus;whiteSpace=wrap;html=1;spacing=40;" parent="1" vertex="1">
          <mxGeometry x="2035" y="260" width="230" height="150" as="geometry" />
        </mxCell>
        <mxCell id="gFG6pAqyAOO8Su1XMJ1i-40" style="edgeStyle=orthogonalEdgeStyle;rounded=0;orthogonalLoop=1;jettySize=auto;html=1;" parent="1" source="gFG6pAqyAOO8Su1XMJ1i-35" target="gFG6pAqyAOO8Su1XMJ1i-39" edge="1">
          <mxGeometry relative="1" as="geometry" />
        </mxCell>
        <mxCell id="gFG6pAqyAOO8Su1XMJ1i-63" value="Yes" style="edgeLabel;html=1;align=center;verticalAlign=middle;resizable=0;points=[];" parent="gFG6pAqyAOO8Su1XMJ1i-40" vertex="1" connectable="0">
          <mxGeometry x="-0.1609" relative="1" as="geometry">
            <mxPoint as="offset" />
          </mxGeometry>
        </mxCell>
        <mxCell id="gFG6pAqyAOO8Su1XMJ1i-49" style="edgeStyle=orthogonalEdgeStyle;rounded=0;orthogonalLoop=1;jettySize=auto;html=1;entryX=0;entryY=0.5;entryDx=0;entryDy=0;" parent="1" source="gFG6pAqyAOO8Su1XMJ1i-35" target="gFG6pAqyAOO8Su1XMJ1i-48" edge="1">
          <mxGeometry relative="1" as="geometry" />
        </mxCell>
        <mxCell id="gFG6pAqyAOO8Su1XMJ1i-50" value="No" style="edgeLabel;html=1;align=center;verticalAlign=middle;resizable=0;points=[];" parent="gFG6pAqyAOO8Su1XMJ1i-49" vertex="1" connectable="0">
          <mxGeometry x="-0.2646" y="1" relative="1" as="geometry">
            <mxPoint as="offset" />
          </mxGeometry>
        </mxCell>
        <mxCell id="gFG6pAqyAOO8Su1XMJ1i-61" style="edgeStyle=orthogonalEdgeStyle;rounded=0;orthogonalLoop=1;jettySize=auto;html=1;exitX=1;exitY=0.5;exitDx=0;exitDy=0;" parent="1" edge="1">
          <mxGeometry relative="1" as="geometry">
            <Array as="points">
              <mxPoint x="4145" y="160" />
              <mxPoint x="4145" y="-270" />
            </Array>
            <mxPoint x="4115" y="160" as="sourcePoint" />
            <mxPoint x="4145" y="-280" as="targetPoint" />
          </mxGeometry>
        </mxCell>
        <mxCell id="gFG6pAqyAOO8Su1XMJ1i-62" value="No" style="edgeLabel;html=1;align=center;verticalAlign=middle;resizable=0;points=[];" parent="gFG6pAqyAOO8Su1XMJ1i-61" vertex="1" connectable="0">
          <mxGeometry x="-0.0945" relative="1" as="geometry">
            <mxPoint as="offset" />
          </mxGeometry>
        </mxCell>
        <mxCell id="gFG6pAqyAOO8Su1XMJ1i-35" value="The candidate would like to change a previous answer?" style="rhombus;whiteSpace=wrap;html=1;spacing=40;" parent="1" vertex="1">
          <mxGeometry x="3870" y="100" width="240" height="120" as="geometry" />
        </mxCell>
        <mxCell id="QRgIElJd6RJdTndcSFIf-16" style="edgeStyle=orthogonalEdgeStyle;rounded=0;orthogonalLoop=1;jettySize=auto;html=1;entryX=0.75;entryY=1;entryDx=0;entryDy=0;" parent="1" source="gFG6pAqyAOO8Su1XMJ1i-39" target="x8r7VW5Qdn-yWQiRTI5Q-276" edge="1">
          <mxGeometry relative="1" as="geometry">
            <Array as="points">
              <mxPoint x="3870" y="400" />
              <mxPoint x="3870" y="300" />
              <mxPoint x="3775" y="300" />
            </Array>
          </mxGeometry>
        </mxCell>
        <mxCell id="gFG6pAqyAOO8Su1XMJ1i-39" value="Candidate is redirected back to the relevant page to amend their answer" style="whiteSpace=wrap;html=1;rounded=1;spacingLeft=5;spacingBottom=5;spacingRight=-1;spacingTop=5;" parent="1" vertex="1">
          <mxGeometry x="3900" y="340" width="180" height="120" as="geometry" />
        </mxCell>
        <mxCell id="gFG6pAqyAOO8Su1XMJ1i-48" value="Candidate is shown confirmation page with an option to return back to the dashboard" style="whiteSpace=wrap;html=1;rounded=1;spacingLeft=5;spacingBottom=5;spacingRight=-1;spacingTop=5;" parent="1" vertex="1">
          <mxGeometry x="4180" y="340" width="180" height="120" as="geometry" />
        </mxCell>
        <mxCell id="QRgIElJd6RJdTndcSFIf-5" style="edgeStyle=orthogonalEdgeStyle;rounded=0;orthogonalLoop=1;jettySize=auto;html=1;entryX=0;entryY=0.5;entryDx=0;entryDy=0;" parent="1" source="QRgIElJd6RJdTndcSFIf-1" target="x8r7VW5Qdn-yWQiRTI5Q-222" edge="1">
          <mxGeometry relative="1" as="geometry">
            <Array as="points">
              <mxPoint x="1075" y="280" />
              <mxPoint x="730" y="280" />
              <mxPoint x="730" y="360" />
            </Array>
          </mxGeometry>
        </mxCell>
        <mxCell id="QRgIElJd6RJdTndcSFIf-10" value="Manual Entry" style="edgeLabel;html=1;align=center;verticalAlign=middle;resizable=0;points=[];" parent="QRgIElJd6RJdTndcSFIf-5" vertex="1" connectable="0">
          <mxGeometry x="-0.9082" y="-2" relative="1" as="geometry">
            <mxPoint y="1" as="offset" />
          </mxGeometry>
        </mxCell>
        <mxCell id="QRgIElJd6RJdTndcSFIf-8" style="edgeStyle=orthogonalEdgeStyle;rounded=0;orthogonalLoop=1;jettySize=auto;html=1;entryX=0.16;entryY=0.55;entryDx=0;entryDy=0;entryPerimeter=0;" parent="1" source="QRgIElJd6RJdTndcSFIf-1" target="QRgIElJd6RJdTndcSFIf-7" edge="1">
          <mxGeometry relative="1" as="geometry" />
        </mxCell>
        <mxCell id="QRgIElJd6RJdTndcSFIf-9" value="Bulk Upload" style="edgeLabel;html=1;align=center;verticalAlign=middle;resizable=0;points=[];" parent="QRgIElJd6RJdTndcSFIf-8" vertex="1" connectable="0">
          <mxGeometry x="-0.5775" y="3" relative="1" as="geometry">
            <mxPoint x="24" y="4" as="offset" />
          </mxGeometry>
        </mxCell>
        <mxCell id="QRgIElJd6RJdTndcSFIf-1" value="Bulk upload or &lt;br&gt;manual entry?" style="rhombus;whiteSpace=wrap;html=1;" parent="1" vertex="1">
          <mxGeometry x="990" y="125" width="170" height="110" as="geometry" />
        </mxCell>
        <mxCell id="QRgIElJd6RJdTndcSFIf-4" style="edgeStyle=orthogonalEdgeStyle;rounded=0;orthogonalLoop=1;jettySize=auto;html=1;entryX=0;entryY=0.5;entryDx=0;entryDy=0;" parent="1" source="QRgIElJd6RJdTndcSFIf-2" target="QRgIElJd6RJdTndcSFIf-1" edge="1">
          <mxGeometry relative="1" as="geometry" />
        </mxCell>
        <mxCell id="QRgIElJd6RJdTndcSFIf-2" value="Recruiter is asked whether they would like to upload in bulk or enter manually one-by-one" style="rounded=1;whiteSpace=wrap;html=1;perimeterSpacing=0;spacingLeft=5;spacingBottom=5;spacingRight=-1;spacingTop=5;" parent="1" vertex="1">
          <mxGeometry x="750" y="125" width="200" height="110" as="geometry" />
        </mxCell>
        <mxCell id="QRgIElJd6RJdTndcSFIf-7" value="Bulk Upload Process&lt;br&gt;Yet To Be Defined" style="ellipse;shape=cloud;whiteSpace=wrap;html=1;fillColor=#f8cecc;strokeColor=#b85450;" parent="1" vertex="1">
          <mxGeometry x="1240" y="115" width="220" height="120" as="geometry" />
        </mxCell>
        <mxCell id="QRgIElJd6RJdTndcSFIf-11" value="&lt;br&gt;&lt;br&gt;The clearance required is the same clearance that is granted as a result of completing this same form. This requires vetting and the candidate will be notified when the clearance is granted. They should be given a URN to reference this clearance." style="whiteSpace=wrap;html=1;rounded=1;spacingLeft=5;spacingBottom=5;spacingRight=-1;spacingTop=5;fillColor=#ffe6cc;strokeColor=#d79b00;" parent="1" vertex="1">
          <mxGeometry x="3220" y="350" width="180" height="190" as="geometry" />
        </mxCell>
        <mxCell id="gFG6pAqyAOO8Su1XMJ1i-1" value="At some point of the form, the candidate is asked whether they already have the Additional Security Clearance required. The candidate chooses yes or no and clicks continue." style="whiteSpace=wrap;html=1;rounded=1;spacingLeft=5;spacingBottom=5;spacingRight=-1;spacingTop=5;" parent="1" vertex="1">
          <mxGeometry x="3220" y="260" width="180" height="120" as="geometry" />
        </mxCell>
        <mxCell id="QRgIElJd6RJdTndcSFIf-12" value="&lt;br&gt;This form forking is yet to be defined." style="whiteSpace=wrap;html=1;rounded=1;spacingLeft=5;spacingBottom=5;spacingRight=-1;spacingTop=5;fillColor=#ffe6cc;strokeColor=#d79b00;" parent="1" vertex="1">
          <mxGeometry x="3640" y="440" width="180" height="70" as="geometry" />
        </mxCell>
        <mxCell id="x8r7VW5Qdn-yWQiRTI5Q-273" value="Candidate skips questions in the ASC form" style="whiteSpace=wrap;html=1;rounded=1;spacingLeft=5;spacingBottom=5;spacingRight=-1;spacingTop=5;" parent="1" vertex="1">
          <mxGeometry x="3640" y="340" width="180" height="120" as="geometry" />
        </mxCell>
        <mxCell id="QRgIElJd6RJdTndcSFIf-13" value="&lt;br&gt;These questions are yet to be defined." style="whiteSpace=wrap;html=1;rounded=1;spacingLeft=5;spacingBottom=5;spacingRight=-1;spacingTop=5;fillColor=#ffe6cc;strokeColor=#d79b00;" parent="1" vertex="1">
          <mxGeometry x="3440" y="439" width="180" height="70" as="geometry" />
        </mxCell>
        <mxCell id="gFG6pAqyAOO8Su1XMJ1i-2" value="The candidate is asked specific questions regarding their clearance, such as the date it was granted and whether their circumstances have changed since it was granted." style="whiteSpace=wrap;html=1;rounded=1;spacingLeft=5;spacingBottom=5;spacingRight=-1;spacingTop=5;" parent="1" vertex="1">
          <mxGeometry x="3440" y="340" width="180" height="120" as="geometry" />
        </mxCell>
        <mxCell id="QRgIElJd6RJdTndcSFIf-25" style="edgeStyle=orthogonalEdgeStyle;rounded=0;orthogonalLoop=1;jettySize=auto;html=1;" parent="1" source="QRgIElJd6RJdTndcSFIf-18" target="QRgIElJd6RJdTndcSFIf-19" edge="1">
          <mxGeometry relative="1" as="geometry">
            <mxPoint x="4260" y="-190" as="targetPoint" />
            <Array as="points">
              <mxPoint x="4260" y="-338" />
            </Array>
          </mxGeometry>
        </mxCell>
        <mxCell id="QRgIElJd6RJdTndcSFIf-26" value="No" style="edgeLabel;html=1;align=center;verticalAlign=middle;resizable=0;points=[];" parent="QRgIElJd6RJdTndcSFIf-25" vertex="1" connectable="0">
          <mxGeometry x="-0.0744" relative="1" as="geometry">
            <mxPoint as="offset" />
          </mxGeometry>
        </mxCell>
        <mxCell id="QRgIElJd6RJdTndcSFIf-28" style="edgeStyle=orthogonalEdgeStyle;rounded=0;orthogonalLoop=1;jettySize=auto;html=1;entryX=0.5;entryY=0;entryDx=0;entryDy=0;" parent="1" source="QRgIElJd6RJdTndcSFIf-18" target="QRgIElJd6RJdTndcSFIf-27" edge="1">
          <mxGeometry relative="1" as="geometry">
            <Array as="points">
              <mxPoint x="4450" y="-360" />
            </Array>
          </mxGeometry>
        </mxCell>
        <mxCell id="QRgIElJd6RJdTndcSFIf-29" value="Yes" style="edgeLabel;html=1;align=center;verticalAlign=middle;resizable=0;points=[];" parent="QRgIElJd6RJdTndcSFIf-28" vertex="1" connectable="0">
          <mxGeometry x="-0.7385" y="1" relative="1" as="geometry">
            <mxPoint as="offset" />
          </mxGeometry>
        </mxCell>
        <mxCell id="QRgIElJd6RJdTndcSFIf-18" value="Is the application still within the expiry window?" style="whiteSpace=wrap;html=1;rounded=1;spacingLeft=5;spacingBottom=5;spacingRight=-1;spacingTop=5;" parent="1" vertex="1">
          <mxGeometry x="4050" y="-398" width="180" height="120" as="geometry" />
        </mxCell>
        <mxCell id="QRgIElJd6RJdTndcSFIf-19" value="The candidate is shown a validation error" style="whiteSpace=wrap;html=1;rounded=1;spacingLeft=5;spacingBottom=5;spacingRight=-1;spacingTop=5;" parent="1" vertex="1">
          <mxGeometry x="4190" y="100" width="180" height="120" as="geometry" />
        </mxCell>
        <mxCell id="QRgIElJd6RJdTndcSFIf-30" style="edgeStyle=orthogonalEdgeStyle;rounded=0;orthogonalLoop=1;jettySize=auto;html=1;entryX=0.5;entryY=0;entryDx=0;entryDy=0;" parent="1" source="QRgIElJd6RJdTndcSFIf-27" target="x8r7VW5Qdn-yWQiRTI5Q-288" edge="1">
          <mxGeometry relative="1" as="geometry" />
        </mxCell>
        <mxCell id="QRgIElJd6RJdTndcSFIf-27" value="The Candidate Application is marked as &#39;complete&#39; to avoid further submissions of the same application" style="whiteSpace=wrap;html=1;rounded=1;spacingLeft=5;spacingBottom=5;spacingRight=-1;spacingTop=5;" parent="1" vertex="1">
          <mxGeometry x="4360" y="-340" width="180" height="120" as="geometry" />
        </mxCell>
        <mxCell id="QRgIElJd6RJdTndcSFIf-40" style="edgeStyle=orthogonalEdgeStyle;rounded=0;orthogonalLoop=1;jettySize=auto;html=1;entryX=0.5;entryY=1;entryDx=0;entryDy=0;" parent="1" source="QRgIElJd6RJdTndcSFIf-31" target="QRgIElJd6RJdTndcSFIf-33" edge="1">
          <mxGeometry relative="1" as="geometry" />
        </mxCell>
        <mxCell id="QRgIElJd6RJdTndcSFIf-41" value="No" style="edgeLabel;html=1;align=center;verticalAlign=middle;resizable=0;points=[];" parent="QRgIElJd6RJdTndcSFIf-40" vertex="1" connectable="0">
          <mxGeometry x="-0.075" relative="1" as="geometry">
            <mxPoint y="1" as="offset" />
          </mxGeometry>
        </mxCell>
        <mxCell id="QRgIElJd6RJdTndcSFIf-46" style="edgeStyle=orthogonalEdgeStyle;rounded=0;orthogonalLoop=1;jettySize=auto;html=1;entryX=0;entryY=0.5;entryDx=0;entryDy=0;" parent="1" source="QRgIElJd6RJdTndcSFIf-31" target="dncCQyLHs5qFYrOBb01V-6" edge="1">
          <mxGeometry relative="1" as="geometry">
            <Array as="points">
              <mxPoint x="4775" y="50" />
              <mxPoint x="4465" y="50" />
              <mxPoint x="4465" y="160" />
            </Array>
          </mxGeometry>
        </mxCell>
        <mxCell id="QRgIElJd6RJdTndcSFIf-47" value="Yes" style="edgeLabel;html=1;align=center;verticalAlign=middle;resizable=0;points=[];" parent="QRgIElJd6RJdTndcSFIf-46" vertex="1" connectable="0">
          <mxGeometry x="-0.9219" y="-2" relative="1" as="geometry">
            <mxPoint y="1" as="offset" />
          </mxGeometry>
        </mxCell>
        <mxCell id="QRgIElJd6RJdTndcSFIf-48" style="edgeStyle=orthogonalEdgeStyle;rounded=0;orthogonalLoop=1;jettySize=auto;html=1;" parent="1" target="x8r7VW5Qdn-yWQiRTI5Q-279" edge="1">
          <mxGeometry relative="1" as="geometry">
            <mxPoint x="4775" y="-5" as="sourcePoint" />
            <mxPoint x="5330.0849737787075" y="-235" as="targetPoint" />
            <Array as="points">
              <mxPoint x="4775" y="15" />
              <mxPoint x="5160" y="15" />
              <mxPoint x="5160" y="-235" />
            </Array>
          </mxGeometry>
        </mxCell>
        <mxCell id="QRgIElJd6RJdTndcSFIf-51" style="edgeStyle=orthogonalEdgeStyle;rounded=0;orthogonalLoop=1;jettySize=auto;html=1;entryX=0;entryY=0.5;entryDx=0;entryDy=0;exitX=0.5;exitY=1;exitDx=0;exitDy=0;" parent="1" source="QRgIElJd6RJdTndcSFIf-31" target="x8r7VW5Qdn-yWQiRTI5Q-281" edge="1">
          <mxGeometry relative="1" as="geometry">
            <Array as="points">
              <mxPoint x="4775" y="-20" />
            </Array>
          </mxGeometry>
        </mxCell>
        <mxCell id="QRgIElJd6RJdTndcSFIf-52" style="edgeStyle=orthogonalEdgeStyle;rounded=0;orthogonalLoop=1;jettySize=auto;html=1;" parent="1" target="x8r7VW5Qdn-yWQiRTI5Q-280" edge="1">
          <mxGeometry relative="1" as="geometry">
            <mxPoint x="4775" as="sourcePoint" />
            <Array as="points">
              <mxPoint x="5180" />
              <mxPoint x="5180" y="-120" />
            </Array>
          </mxGeometry>
        </mxCell>
        <mxCell id="QRgIElJd6RJdTndcSFIf-31" value="If the submission to CLUE failed, we will retry as per config in the CLUE Resolver&lt;br&gt;&lt;br&gt;Did we eventually succeed?" style="rhombus;whiteSpace=wrap;html=1;spacing=40;spacingLeft=40;spacingRight=40;spacingBottom=1;" parent="1" vertex="1">
          <mxGeometry x="4610" y="-200" width="330" height="120" as="geometry" />
        </mxCell>
        <mxCell id="QRgIElJd6RJdTndcSFIf-42" style="edgeStyle=orthogonalEdgeStyle;rounded=0;orthogonalLoop=1;jettySize=auto;html=1;entryX=0;entryY=0.5;entryDx=0;entryDy=0;" parent="1" edge="1">
          <mxGeometry relative="1" as="geometry">
            <mxPoint x="4869" y="-300" as="sourcePoint" />
            <mxPoint x="5264.999999999984" y="-381.4999999999998" as="targetPoint" />
            <Array as="points">
              <mxPoint x="5084" y="-300" />
              <mxPoint x="5084" y="-382" />
            </Array>
          </mxGeometry>
        </mxCell>
        <mxCell id="QRgIElJd6RJdTndcSFIf-43" style="edgeStyle=orthogonalEdgeStyle;rounded=0;orthogonalLoop=1;jettySize=auto;html=1;entryX=0;entryY=0.5;entryDx=0;entryDy=0;" parent="1" source="QRgIElJd6RJdTndcSFIf-33" target="x8r7VW5Qdn-yWQiRTI5Q-279" edge="1">
          <mxGeometry relative="1" as="geometry" />
        </mxCell>
        <mxCell id="QRgIElJd6RJdTndcSFIf-44" style="edgeStyle=orthogonalEdgeStyle;rounded=0;orthogonalLoop=1;jettySize=auto;html=1;entryX=0;entryY=0.5;entryDx=0;entryDy=0;" parent="1" edge="1">
          <mxGeometry relative="1" as="geometry">
            <mxPoint x="4869" y="-300" as="sourcePoint" />
            <mxPoint x="5292" y="-140" as="targetPoint" />
            <Array as="points">
              <mxPoint x="5084" y="-300" />
              <mxPoint x="5084" y="-140" />
            </Array>
          </mxGeometry>
        </mxCell>
        <mxCell id="QRgIElJd6RJdTndcSFIf-33" value="We did not manage to submit the case to CLUE after X retries (perhaps CLUE is offline)" style="whiteSpace=wrap;html=1;rounded=1;spacingLeft=5;spacingBottom=5;spacingRight=-1;spacingTop=5;" parent="1" vertex="1">
          <mxGeometry x="4685" y="-360" width="180" height="120" as="geometry" />
        </mxCell>
        <mxCell id="QRgIElJd6RJdTndcSFIf-34" value="Caseworker fallback email is sent as a last resort, containing the full details of the candidate submission" style="ellipse;whiteSpace=wrap;html=1;rounded=1;spacingLeft=5;spacingBottom=5;spacingRight=-1;spacingTop=5;" parent="1" vertex="1">
          <mxGeometry x="5261" y="-428" width="244" height="93" as="geometry" />
        </mxCell>
        <mxCell id="QRgIElJd6RJdTndcSFIf-53" value="&lt;br&gt;&lt;br&gt;&lt;br&gt;As per discussion 28/03/23 it was confirmed that the case should still go through to CLUE regardless of whether the candidate has existing ASC clearance" style="whiteSpace=wrap;html=1;rounded=1;spacingLeft=5;spacingBottom=5;spacingRight=-1;spacingTop=5;fillColor=#ffe6cc;strokeColor=#d79b00;" parent="1" vertex="1">
          <mxGeometry x="4360" y="-115" width="180" height="130" as="geometry" />
        </mxCell>
        <mxCell id="x8r7VW5Qdn-yWQiRTI5Q-288" value="Candidate Application is sent to CLUE via the clue-resolver API" style="whiteSpace=wrap;html=1;rounded=1;spacingLeft=5;spacingBottom=5;spacingRight=-1;spacingTop=5;" parent="1" vertex="1">
          <mxGeometry x="4360" y="-200" width="180" height="120" as="geometry" />
        </mxCell>
        <mxCell id="QRgIElJd6RJdTndcSFIf-55" style="edgeStyle=orthogonalEdgeStyle;rounded=0;orthogonalLoop=1;jettySize=auto;html=1;entryX=0.5;entryY=1;entryDx=0;entryDy=0;" parent="1" source="QRgIElJd6RJdTndcSFIf-54" target="x8r7VW5Qdn-yWQiRTI5Q-268" edge="1">
          <mxGeometry relative="1" as="geometry" />
        </mxCell>
        <mxCell id="QRgIElJd6RJdTndcSFIf-58" value="Yes" style="edgeLabel;html=1;align=center;verticalAlign=middle;resizable=0;points=[];" parent="QRgIElJd6RJdTndcSFIf-55" vertex="1" connectable="0">
          <mxGeometry x="-0.098" y="2" relative="1" as="geometry">
            <mxPoint as="offset" />
          </mxGeometry>
        </mxCell>
        <mxCell id="QRgIElJd6RJdTndcSFIf-57" value="No" style="edgeStyle=orthogonalEdgeStyle;rounded=0;orthogonalLoop=1;jettySize=auto;html=1;entryX=0.5;entryY=0;entryDx=0;entryDy=0;" parent="1" source="QRgIElJd6RJdTndcSFIf-54" target="QRgIElJd6RJdTndcSFIf-56" edge="1">
          <mxGeometry relative="1" as="geometry" />
        </mxCell>
        <mxCell id="QRgIElJd6RJdTndcSFIf-56" value="The user is shown a validation error and cannot continue" style="whiteSpace=wrap;html=1;rounded=1;spacingLeft=5;spacingBottom=5;spacingRight=-1;spacingTop=5;" parent="1" vertex="1">
          <mxGeometry x="2770" y="590" width="180" height="120" as="geometry" />
        </mxCell>
        <mxCell id="QRgIElJd6RJdTndcSFIf-59" value="It could be that the user is not a candidate at all but instead a user that somehow knows of the public URL for the service, so this is a security measure to ensure only valid candidates with valid applications outstanding can access the dashboard. This will also ensure genuine candidates cannot access the dashboard unless they have applications outstanding" style="whiteSpace=wrap;html=1;rounded=1;spacingLeft=130;spacingBottom=5;spacingRight=10;spacingTop=5;fillColor=#ffe6cc;strokeColor=#d79b00;" parent="1" vertex="1">
          <mxGeometry x="2841" y="340" width="349" height="180" as="geometry" />
        </mxCell>
        <mxCell id="QRgIElJd6RJdTndcSFIf-54" value="Does the user have any incomplete applications assigned that are still within the expiry window of the application?" style="rhombus;whiteSpace=wrap;html=1;spacing=40;" parent="1" vertex="1">
          <mxGeometry x="2755" y="340" width="210" height="180" as="geometry" />
        </mxCell>
        <mxCell id="0nyJZ_ot4OZluqlmO56n-3" style="edgeStyle=orthogonalEdgeStyle;rounded=0;orthogonalLoop=1;jettySize=auto;html=1;entryX=0.5;entryY=1;entryDx=0;entryDy=0;" edge="1" parent="1" source="0nyJZ_ot4OZluqlmO56n-2" target="x8r7VW5Qdn-yWQiRTI5Q-237">
          <mxGeometry relative="1" as="geometry" />
        </mxCell>
        <mxCell id="0nyJZ_ot4OZluqlmO56n-5" value="Yes" style="edgeLabel;html=1;align=center;verticalAlign=middle;resizable=0;points=[];" vertex="1" connectable="0" parent="0nyJZ_ot4OZluqlmO56n-3">
          <mxGeometry x="-0.3436" y="-2" relative="1" as="geometry">
            <mxPoint as="offset" />
          </mxGeometry>
        </mxCell>
        <mxCell id="0nyJZ_ot4OZluqlmO56n-4" style="edgeStyle=orthogonalEdgeStyle;rounded=0;orthogonalLoop=1;jettySize=auto;html=1;" edge="1" parent="1" source="0nyJZ_ot4OZluqlmO56n-2" target="x8r7VW5Qdn-yWQiRTI5Q-245">
          <mxGeometry relative="1" as="geometry" />
        </mxCell>
        <mxCell id="0nyJZ_ot4OZluqlmO56n-6" value="No" style="edgeLabel;html=1;align=center;verticalAlign=middle;resizable=0;points=[];" vertex="1" connectable="0" parent="0nyJZ_ot4OZluqlmO56n-4">
          <mxGeometry x="-0.09" y="-2" relative="1" as="geometry">
            <mxPoint as="offset" />
          </mxGeometry>
        </mxCell>
        <mxCell id="0nyJZ_ot4OZluqlmO56n-2" value="Does the recruiter want to change any of the details they have entered?" style="rhombus;whiteSpace=wrap;html=1;spacing=40;" vertex="1" parent="1">
          <mxGeometry x="1180" y="580" width="170" height="110" as="geometry" />
        </mxCell>
      </root>
    </mxGraphModel>
  </diagram>
</mxfile>
